<svg xmlns="http://www.w3.org/2000/svg" width="27.828" height="27.828" viewBox="0 0 27.828 27.828">
  <g id="Group_1137" data-name="Group 1137" transform="translate(-19.586 -204.586)">
    <path id="Path_243" data-name="Path 243" d="M69.892,184.714A9.2,9.2,0,0,0,63.4,177.4a18.709,18.709,0,0,0-4.965-.794,26.92,26.92,0,0,0-8.385.677,8.971,8.971,0,0,0-6.536,6.13,19.277,19.277,0,0,0-.887,5.54,26.9,26.9,0,0,0,.608,7.668,9.015,9.015,0,0,0,5.734,6.671,16.487,16.487,0,0,0,4.737.98,29.951,29.951,0,0,0,8.5-.413,9.308,9.308,0,0,0,7.634-7.423,24.681,24.681,0,0,0,.574-6.029A23.248,23.248,0,0,0,69.892,184.714Z" transform="translate(-23.013 28.026)" fill="#013ec4"/>
    <path id="social-media" d="M10.831,4.841h0L6.29.3A1.025,1.025,0,0,0,4.84.3L.3,4.838l0,0A1.024,1.024,0,0,0,.979,6.588l.032,0h.181V9.932a1.2,1.2,0,0,0,1.2,1.2H4.168a.326.326,0,0,0,.326-.326V8.185a.548.548,0,0,1,.547-.547H6.089a.548.548,0,0,1,.547.547V10.8a.326.326,0,0,0,.326.326H8.739a1.2,1.2,0,0,0,1.2-1.2V6.59h.168a1.025,1.025,0,0,0,.725-1.749Zm0,0" transform="translate(28 212.501)" fill="none" stroke="#fff" stroke-width="1"/>
  </g>
</svg>
