<svg xmlns="http://www.w3.org/2000/svg" width="27.828" height="27.828" viewBox="0 0 27.828 27.828">
  <g id="Group_1139" data-name="Group 1139" transform="translate(-257.586 -204.586)">
    <path id="Path_243" data-name="Path 243" d="M69.892,184.714A9.2,9.2,0,0,0,63.4,177.4a18.709,18.709,0,0,0-4.965-.794,26.92,26.92,0,0,0-8.385.677,8.971,8.971,0,0,0-6.536,6.13,19.277,19.277,0,0,0-.887,5.54,26.9,26.9,0,0,0,.608,7.668,9.015,9.015,0,0,0,5.734,6.671,16.487,16.487,0,0,0,4.737.98,29.951,29.951,0,0,0,8.5-.413,9.308,9.308,0,0,0,7.634-7.423,24.681,24.681,0,0,0,.574-6.029A23.248,23.248,0,0,0,69.892,184.714Z" transform="translate(214.987 28.026)" fill="#013ec4"/>
    <g id="Group_1135" data-name="Group 1135" transform="translate(176.051 -1136.747)">
      <path id="Shape" d="M.171,6.744a.6.6,0,0,0,0,.839l.925.944a.6.6,0,0,0,.855,0L6.025,4.373a.6.6,0,0,1,.855,0L7.1,4.6a.6.6,0,0,0,1.027-.419V1.027a.6.6,0,0,0-.6-.6H4.209a.541.541,0,0,0-.359.854l.427.435a.6.6,0,0,1,0,.839Z" transform="translate(93.934 1351.281)" fill="none" stroke="#fff" stroke-width="1"/>
      <path id="Shape-2" data-name="Shape" d="M.4,7.679a.6.6,0,0,0,.6.6H4.32a.541.541,0,0,0,.359-.854l-.427-.435a.6.6,0,0,1,0-.839L8.358,1.962a.6.6,0,0,0,0-.839L7.433.18a.6.6,0,0,0-.855,0L2.5,4.333a.6.6,0,0,1-.855,0l-.221-.226A.6.6,0,0,0,.4,4.526Z" transform="translate(87.887 1349.87)" fill="none" stroke="#fff" stroke-width="1"/>
    </g>
  </g>
</svg>
