<svg xmlns="http://www.w3.org/2000/svg" width="27.828" height="27.828" viewBox="0 0 27.828 27.828">
  <g id="Group_1143" data-name="Group 1143" transform="translate(-95.586 -309.586)">
    <path id="Path_243" data-name="Path 243" d="M69.892,184.714A9.2,9.2,0,0,0,63.4,177.4a18.709,18.709,0,0,0-4.965-.794,26.92,26.92,0,0,0-8.385.677,8.971,8.971,0,0,0-6.536,6.13,19.277,19.277,0,0,0-.887,5.54,26.9,26.9,0,0,0,.608,7.668,9.015,9.015,0,0,0,5.734,6.671,16.487,16.487,0,0,0,4.737.98,29.951,29.951,0,0,0,8.5-.413,9.308,9.308,0,0,0,7.634-7.423,24.681,24.681,0,0,0,.574-6.029A23.248,23.248,0,0,0,69.892,184.714Z" transform="translate(52.987 133.026)" fill="rgba(16,22,84,0.24)"/>
    <g id="wallet" transform="translate(103.354 273.692)" opacity="0.35">
      <g id="Group_1132" data-name="Group 1132" transform="translate(0 44.308)">
        <g id="Group_1131" data-name="Group 1131" transform="translate(0 0)">
          <path id="Path_2704" data-name="Path 2704" d="M11.086,44.308H1.869A1.871,1.871,0,0,0,0,46.177v6.976a1.871,1.871,0,0,0,1.869,1.869h9.218a1.871,1.871,0,0,0,1.869-1.869V46.177A1.871,1.871,0,0,0,11.086,44.308Zm1.121,6.477H9.467a1.121,1.121,0,0,1,0-2.242h2.74v2.242Zm0-2.99H9.467a1.869,1.869,0,1,0,0,3.737h2.74v1.619a1.122,1.122,0,0,1-1.121,1.121H1.869A1.122,1.122,0,0,1,.747,53.152V46.177a1.122,1.122,0,0,1,1.121-1.121h9.218a1.122,1.122,0,0,1,1.121,1.121Z" transform="translate(0 -44.308)" fill="#101654"/>
        </g>
      </g>
      <g id="Group_1134" data-name="Group 1134" transform="translate(9.093 49.291)">
        <g id="Group_1133" data-name="Group 1133" transform="translate(0 0)">
          <path id="Path_2705" data-name="Path 2705" d="M360.257,241.231h-.5a.374.374,0,1,0,0,.747h.5a.374.374,0,1,0,0-.747Z" transform="translate(-359.385 -241.231)" fill="#101654"/>
        </g>
      </g>
    </g>
  </g>
</svg>
