<svg xmlns="http://www.w3.org/2000/svg" width="27.828" height="27.828" viewBox="0 0 27.828 27.828">
  <g id="Group_1145" data-name="Group 1145" transform="translate(-327.586 -309.586)">
    <path id="Path_243" data-name="Path 243" d="M69.892,184.714A9.2,9.2,0,0,0,63.4,177.4a18.709,18.709,0,0,0-4.965-.794,26.92,26.92,0,0,0-8.385.677,8.971,8.971,0,0,0-6.536,6.13,19.277,19.277,0,0,0-.887,5.54,26.9,26.9,0,0,0,.608,7.668,9.015,9.015,0,0,0,5.734,6.671,16.487,16.487,0,0,0,4.737.98,29.951,29.951,0,0,0,8.5-.413,9.308,9.308,0,0,0,7.634-7.423,24.681,24.681,0,0,0,.574-6.029A23.248,23.248,0,0,0,69.892,184.714Z" transform="translate(284.987 133.026)" fill="rgba(16,22,84,0.24)"/>
    <g id="settings" transform="translate(333.871 316)">
      <circle id="Ellipse_314" data-name="Ellipse 314" cx="2.5" cy="2.5" r="2.5" transform="translate(5.13 5.13)" fill="none" stroke="rgba(16,22,84,0.35)" stroke-linecap="round" stroke-linejoin="round" stroke-width="1"/>
      <path id="Path_2706" data-name="Path 2706" d="M11.981,9.355a.985.985,0,0,0,.2,1.086l.036.036a1.194,1.194,0,1,1-1.689,1.689l-.036-.036a.993.993,0,0,0-1.683.7v.1a1.194,1.194,0,0,1-2.387,0v-.054a.985.985,0,0,0-.645-.9.985.985,0,0,0-1.086.2l-.036.036a1.194,1.194,0,1,1-1.689-1.689L3,10.489a.993.993,0,0,0-.7-1.683h-.1a1.194,1.194,0,1,1,0-2.387h.054a.985.985,0,0,0,.9-.645.985.985,0,0,0-.2-1.086l-.036-.036A1.194,1.194,0,1,1,4.6,2.963L4.64,3a.985.985,0,0,0,1.086.2h.048a.985.985,0,0,0,.6-.9v-.1a1.194,1.194,0,1,1,2.387,0v.054a.993.993,0,0,0,1.683.7l.036-.036A1.194,1.194,0,1,1,12.166,4.6l-.036.036a.985.985,0,0,0-.2,1.086v.048a.985.985,0,0,0,.9.6h.1a1.194,1.194,0,0,1,0,2.387h-.054A.985.985,0,0,0,11.981,9.355Z" fill="none" stroke="rgba(16,22,84,0.35)" stroke-linecap="round" stroke-linejoin="round" stroke-width="1"/>
    </g>
  </g>
</svg>
