<svg xmlns="http://www.w3.org/2000/svg" width="12.315" height="12.131" viewBox="0 0 12.315 12.131">
  <path id="social-media" d="M10.831,4.841h0L6.29.3A1.025,1.025,0,0,0,4.84.3L.3,4.838l0,0A1.024,1.024,0,0,0,.979,6.588l.032,0h.181V9.932a1.2,1.2,0,0,0,1.2,1.2H4.168a.326.326,0,0,0,.326-.326V8.185a.548.548,0,0,1,.547-.547H6.089a.548.548,0,0,1,.547.547V10.8a.326.326,0,0,0,.326.326H8.739a1.2,1.2,0,0,0,1.2-1.2V6.59h.168a1.025,1.025,0,0,0,.725-1.749Zm0,0" transform="translate(0.592 0.501)" fill="#fff" stroke="#101654" stroke-width="1"/>
</svg>
