<svg xmlns="http://www.w3.org/2000/svg" width="12.955" height="10.713" viewBox="0 0 12.955 10.713">
  <g id="wallet" transform="translate(0 -44.308)">
    <g id="Group_1132" data-name="Group 1132" transform="translate(0 44.308)">
      <g id="Group_1131" data-name="Group 1131" transform="translate(0 0)">
        <path id="Path_2704" data-name="Path 2704" d="M11.086,44.308H1.869A1.871,1.871,0,0,0,0,46.177v6.976a1.871,1.871,0,0,0,1.869,1.869h9.218a1.871,1.871,0,0,0,1.869-1.869V46.177A1.871,1.871,0,0,0,11.086,44.308Zm1.121,6.477H9.467a1.121,1.121,0,0,1,0-2.242h2.74v2.242Zm0-2.99H9.467a1.869,1.869,0,1,0,0,3.737h2.74v1.619a1.122,1.122,0,0,1-1.121,1.121H1.869A1.122,1.122,0,0,1,.747,53.152V46.177a1.122,1.122,0,0,1,1.121-1.121h9.218a1.122,1.122,0,0,1,1.121,1.121Z" transform="translate(0 -44.308)" fill="#101654"/>
      </g>
    </g>
    <g id="Group_1134" data-name="Group 1134" transform="translate(9.093 49.291)">
      <g id="Group_1133" data-name="Group 1133" transform="translate(0 0)">
        <path id="Path_2705" data-name="Path 2705" d="M360.257,241.231h-.5a.374.374,0,1,0,0,.747h.5a.374.374,0,1,0,0-.747Z" transform="translate(-359.385 -241.231)" fill="#101654"/>
      </g>
    </g>
  </g>
</svg>
