<svg xmlns="http://www.w3.org/2000/svg" width="14.13" height="14.13" viewBox="0 0 14.13 14.13">
  <g id="settings" transform="translate(-0.5 -0.5)">
    <circle id="Ellipse_314" data-name="Ellipse 314" cx="2.5" cy="2.5" r="2.5" transform="translate(5.13 5.13)" fill="none" stroke="#101654" stroke-linecap="round" stroke-linejoin="round" stroke-width="1"/>
    <path id="Path_2706" data-name="Path 2706" d="M11.981,9.355a.985.985,0,0,0,.2,1.086l.036.036a1.194,1.194,0,1,1-1.689,1.689l-.036-.036a.993.993,0,0,0-1.683.7v.1a1.194,1.194,0,0,1-2.387,0v-.054a.985.985,0,0,0-.645-.9.985.985,0,0,0-1.086.2l-.036.036a1.194,1.194,0,1,1-1.689-1.689L3,10.489a.993.993,0,0,0-.7-1.683h-.1a1.194,1.194,0,1,1,0-2.387h.054a.985.985,0,0,0,.9-.645.985.985,0,0,0-.2-1.086l-.036-.036A1.194,1.194,0,1,1,4.6,2.963L4.64,3a.985.985,0,0,0,1.086.2h.048a.985.985,0,0,0,.6-.9v-.1a1.194,1.194,0,1,1,2.387,0v.054a.993.993,0,0,0,1.683.7l.036-.036A1.194,1.194,0,1,1,12.166,4.6l-.036.036a.985.985,0,0,0-.2,1.086v.048a.985.985,0,0,0,.9.6h.1a1.194,1.194,0,0,1,0,2.387h-.054A.985.985,0,0,0,11.981,9.355Z" fill="none" stroke="#101654" stroke-linecap="round" stroke-linejoin="round" stroke-width="1"/>
  </g>
</svg>
