<svg xmlns="http://www.w3.org/2000/svg" width="17.834" height="13.363" viewBox="0 0 17.834 13.363">
  <g id="Group_219" data-name="Group 219" transform="translate(-87.788 -1349.37)">
    <path id="Shape" d="M.209,8.146a.732.732,0,0,0,0,1.025L1.34,10.325a.732.732,0,0,0,1.045,0L7.363,5.248a.732.732,0,0,1,1.045,0l.271.276a.732.732,0,0,0,1.255-.512V1.16A.732.732,0,0,0,9.2.428H5.143a.661.661,0,0,0-.438,1.044L5.227,2a.732.732,0,0,1,0,1.025Z" transform="translate(95.188 1351.69)" fill="none" stroke="#101654" stroke-width="1"/>
    <path id="Shape-2" data-name="Shape" d="M.4,9.384a.732.732,0,0,0,.732.732H5.191a.661.661,0,0,0,.438-1.044L5.107,8.54a.732.732,0,0,1,0-1.025L10.125,2.4a.732.732,0,0,0,0-1.025L8.994.219a.732.732,0,0,0-1.045,0L2.971,5.3a.732.732,0,0,1-1.045,0l-.271-.276A.732.732,0,0,0,.4,5.532Z" transform="translate(87.887 1349.87)" fill="none" stroke="#101654" stroke-width="1"/>
  </g>
</svg>
