<svg xmlns="http://www.w3.org/2000/svg" width="11.318" height="13.414" viewBox="0 0 11.318 13.414"><defs><style>.a{fill:red;}</style></defs><path class="a" d="M50.995,2.172,45.86.04a.524.524,0,0,0-.4,0L40.323,2.172A.524.524,0,0,0,40,2.656V5.248a8.775,8.775,0,0,0,5.461,8.127.524.524,0,0,0,.4,0,8.775,8.775,0,0,0,5.461-8.127V2.656A.524.524,0,0,0,50.995,2.172ZM50.27,5.248a7.729,7.729,0,0,1-4.611,7.073,7.729,7.729,0,0,1-4.611-7.073V3.006l4.611-1.914L50.27,3.006ZM45.08,7.014l2.252-2.252a.524.524,0,1,1,.741.741L45.45,8.126a.524.524,0,0,1-.741,0L43.245,6.661a.524.524,0,1,1,.741-.741Z" transform="translate(-40 0)"/></svg>