<svg xmlns="http://www.w3.org/2000/svg" width="16" height="15.304" viewBox="0 0 16 15.304"><defs><style>.a{fill:#013ec4;}</style></defs><g transform="translate(0 -0.332)"><path class="a" d="M159.941,220.043H149.854a.522.522,0,1,1,0-1.043h10.087a.522.522,0,1,1,0,1.043Zm0,0" transform="translate(-144.462 -211.538)"/><path class="a" d="M152.644,140.261a.518.518,0,0,1-.369-.153l-2.783-2.783a.522.522,0,0,1,0-.738l2.783-2.783a.522.522,0,1,1,.738.738l-2.414,2.414,2.414,2.414a.521.521,0,0,1-.369.89Zm0,0" transform="translate(-144.47 -128.973)"/><path class="a" d="M7.652,15.636A7.652,7.652,0,1,1,14.774,5.185a.522.522,0,1,1-.971.382,6.608,6.608,0,1,0,0,4.835.522.522,0,1,1,.971.382,7.613,7.613,0,0,1-7.122,4.852Zm0,0"/></g></svg>