<svg xmlns="http://www.w3.org/2000/svg" width="14.5" height="14.5" viewBox="0 0 14.5 14.5"><defs><style>.a{fill:#013ec4;}</style></defs><path class="a" d="M12.377,2.123A7.25,7.25,0,0,0,2.123,12.377,7.25,7.25,0,0,0,12.377,2.123ZM7.25,13.65a6.4,6.4,0,1,1,6.4-6.4A6.408,6.408,0,0,1,7.25,13.65Z"/><g transform="translate(5.005 2.73)"><path class="a" d="M179.434,100.5h-.91a.94.94,0,1,1,0-1.88h1.82a.425.425,0,0,0,0-.85h-.94v-.94a.425.425,0,1,0-.85,0v.94h-.03a1.79,1.79,0,1,0,0,3.58h.91a.94.94,0,0,1,0,1.88h-1.82a.425.425,0,0,0,0,.85h.94v.94a.425.425,0,1,0,.85,0v-.94h.03a1.79,1.79,0,0,0,0-3.58Z" transform="translate(-176.734 -96.401)"/></g></svg>