<svg xmlns="http://www.w3.org/2000/svg" width="25.333" height="19" viewBox="0 0 25.333 19"><defs><style>.a{fill:#fff;}</style></defs><g transform="translate(0 -76.5)"><g transform="translate(0 76.5)"><path class="a" d="M23.222,76.5H7.389a1.9,1.9,0,0,0-1.689.95L0,86l5.7,8.55a2.15,2.15,0,0,0,1.689.95H23.222a2.117,2.117,0,0,0,2.111-2.111V78.611A2.117,2.117,0,0,0,23.222,76.5ZM20.056,89.8l-1.478,1.478-3.8-3.8-3.8,3.8L9.5,89.8,13.3,86,9.5,82.2l1.478-1.478,3.8,3.8,3.8-3.8L20.056,82.2l-3.8,3.8Z" transform="translate(0 -76.5)"/></g></g></svg>