<svg xmlns="http://www.w3.org/2000/svg" width="17.877" height="13.129" viewBox="0 0 17.877 13.129">
  <g id="History" transform="translate(-3179.287 -470.871)">
    <path id="Shape" d="M.222,8.625a.777.777,0,0,0,0,1.088l1.2,1.225a.777.777,0,0,0,1.11,0L7.82,5.547a.777.777,0,0,1,1.11,0l.287.293A.777.777,0,0,0,10.549,5.3V1.206A.777.777,0,0,0,9.772.428H5.462A.7.7,0,0,0,5,1.537l.554.565a.777.777,0,0,1,0,1.089Z" transform="translate(3186.615 472.829)" fill="#013ec4"/>
    <path id="Shape-2" data-name="Shape" d="M.4,9.965a.777.777,0,0,0,.777.777h4.31a.7.7,0,0,0,.465-1.109L5.4,9.069a.777.777,0,0,1,0-1.089l5.329-5.434a.777.777,0,0,0,0-1.088L9.527.233a.777.777,0,0,0-1.11,0L3.131,5.624a.777.777,0,0,1-1.11,0L1.733,5.33A.777.777,0,0,0,.4,5.874Z" transform="translate(3178.887 470.871)" fill="#013ec4"/>
  </g>
</svg>
