<svg xmlns="http://www.w3.org/2000/svg" width="12.13" height="12.131" viewBox="0 0 12.13 12.131">
  <g id="Home" transform="translate(-3126 -471.87)">
    <path id="social-media" d="M11.8,5.276h0L6.855.327a1.117,1.117,0,0,0-1.579,0L.329,5.272l0,.005a1.116,1.116,0,0,0,.743,1.9l.034,0h.2v3.642a1.309,1.309,0,0,0,1.307,1.307H4.542a.355.355,0,0,0,.355-.355V8.92a.6.6,0,0,1,.6-.6H6.636a.6.6,0,0,1,.6.6v2.855a.355.355,0,0,0,.355.355H9.524a1.309,1.309,0,0,0,1.307-1.307V7.182h.183a1.117,1.117,0,0,0,.79-1.906Zm0,0" transform="translate(3126 471.871)" fill="#013ec4"/>
  </g>
</svg>
