<svg xmlns="http://www.w3.org/2000/svg" width="15.313" height="15.313" viewBox="0 0 15.313 15.313"><defs><style>.a{fill:#fff;}</style></defs><path class="a" d="M7.656,0a7.656,7.656,0,1,0,7.656,7.656A7.665,7.665,0,0,0,7.656,0Zm.5,12.2c-.364.061-1.088.212-1.455.243a.9.9,0,0,1-.784-.408.957.957,0,0,1-.116-.876l1.447-3.98h-1.5A1.8,1.8,0,0,1,7.158,5.5a5.54,5.54,0,0,1,1.455-.241,1.154,1.154,0,0,1,.784.408.957.957,0,0,1,.116.876l-1.447,3.98h1.5A1.694,1.694,0,0,1,8.154,12.2Zm.459-7.414a.957.957,0,1,1,.957-.957.957.957,0,0,1-.957.957Z"/></svg>