<svg xmlns="http://www.w3.org/2000/svg" width="3.828" height="9.573" viewBox="0 0 3.828 9.573">
  <path id="Subtraction_4" data-name="Subtraction 4" d="M6.641,12.444a.905.905,0,0,1-.725-.411.956.956,0,0,1-.116-.876l1.447-3.98h-1.5A1.8,1.8,0,0,1,7.159,5.5a6.051,6.051,0,0,1,1.372-.243l.082,0a1.15,1.15,0,0,1,.784.408.959.959,0,0,1,.116.876l-1.447,3.98h1.5A1.688,1.688,0,0,1,8.154,12.2c-.108.018-.25.045-.4.073-.355.066-.8.149-1.055.17ZM8.613,4.785a.957.957,0,1,1,.958-.958A.958.958,0,0,1,8.613,4.785Z" transform="translate(-5.742 -2.871)" fill="#5B72C3" opacity="0.22"/>
</svg>
