<svg xmlns="http://www.w3.org/2000/svg" width="20.031" height="20.221" viewBox="0 0 20.031 20.221"><defs><style>.a{fill:#013ec4;}</style></defs><g transform="translate(0 0)"><g transform="translate(15.825 6.077)"><path class="a" d="M0,0H1.464V4.485H0Z" transform="translate(0 1.035) rotate(-45)"/></g><path class="a" d="M20.1,26.221H8.248A2.285,2.285,0,0,1,6,23.9V8.317A2.285,2.285,0,0,1,8.248,6h6.571V7.264H8.248A1.039,1.039,0,0,0,7.226,8.317V23.9a1.039,1.039,0,0,0,1.022,1.053H20.1A1.039,1.039,0,0,0,21.121,23.9V16.186h1.226V23.9A2.285,2.285,0,0,1,20.1,26.221Z" transform="translate(-6 -6)"/><g transform="translate(8.541)"><path class="a" d="M22.879,15.758a4.879,4.879,0,1,1,4.879-4.879A4.884,4.884,0,0,1,22.879,15.758Zm0-8.294a3.415,3.415,0,1,0,3.415,3.415A3.419,3.419,0,0,0,22.879,7.464Z" transform="translate(-18 -6)"/></g></g></svg>