<svg xmlns="http://www.w3.org/2000/svg" width="16.5" height="14.528" viewBox="0 0 16.5 14.528"><defs><style>.a{fill:#013ec4;}</style></defs><g transform="translate(0 -30.536)"><g transform="translate(0 30.536)"><path class="a" d="M2.4,45.064H1.232l.827-.827a2.8,2.8,0,0,0,.8-1.655A6.3,6.3,0,0,1,.389,39.664,5.718,5.718,0,0,1,.224,36a7.173,7.173,0,0,1,2.748-3.837,8.981,8.981,0,0,1,5.305-1.627,8.894,8.894,0,0,1,6.133,2.09,6.275,6.275,0,0,1,1.565,7.188A6.454,6.454,0,0,1,14.406,42a8.874,8.874,0,0,1-6.129,2.1A11.151,11.151,0,0,1,5.5,43.743a4.332,4.332,0,0,1-3.1,1.321ZM8.277,31.5c-4,0-6.462,2.388-7.121,4.755a4.876,4.876,0,0,0,2.455,5.654l.241.146-.007.282a3.814,3.814,0,0,1-.386,1.58,3.431,3.431,0,0,0,1.517-1.038l.2-.242.3.091a10.018,10.018,0,0,0,2.792.4c4.984,0,7.254-3.018,7.254-5.822a5.326,5.326,0,0,0-1.775-3.964A7.952,7.952,0,0,0,8.277,31.5Z" transform="translate(0 -30.536)"/></g></g></svg>