<svg xmlns="http://www.w3.org/2000/svg" width="15.058" height="20.885" viewBox="0 0 15.058 20.885"><defs><style>.a{fill:#1edf92;}</style></defs><g transform="translate(-65.8)"><g transform="translate(65.8)"><g transform="translate(0)"><path class="a" d="M78.861,8.882V5.574a5.546,5.546,0,0,0-1.656-3.985A5.369,5.369,0,0,0,73.393,0h-.071a5.561,5.561,0,0,0-5.53,5.574V8.882A2.258,2.258,0,0,0,65.8,11.153v7.429a2.288,2.288,0,0,0,2.271,2.3H78.587a2.288,2.288,0,0,0,2.271-2.3V11.153A2.269,2.269,0,0,0,78.861,8.882ZM68.673,5.574h0a4.685,4.685,0,0,1,4.649-4.7h0a4.586,4.586,0,0,1,3.25,1.337,4.689,4.689,0,0,1,1.39,3.365V8.886H77V5.574a3.731,3.731,0,0,0-1.1-2.679,3.59,3.59,0,0,0-2.537-1.054h-.027A3.708,3.708,0,0,0,69.648,5.57V8.886h-.974Zm7.443,0V8.886H70.537V5.574a2.819,2.819,0,0,1,2.8-2.842h.027a2.715,2.715,0,0,1,1.917.8A2.854,2.854,0,0,1,76.116,5.574Zm3.9,13.021h0a1.4,1.4,0,0,1-1.4,1.4H68.089a1.4,1.4,0,0,1-1.4-1.4V11.175a1.4,1.4,0,0,1,1.4-1.4h10.52a1.4,1.4,0,0,1,1.4,1.4Z" transform="translate(-65.8)"/></g></g><g transform="translate(71.728 13.455)"><g transform="translate(0)"><path class="a" d="M202.83,305.056a1.6,1.6,0,1,0-1.975,1.975v1.24a.443.443,0,1,0,.886,0v-1.24A1.592,1.592,0,0,0,202.83,305.056Zm-1.532,1.151a.713.713,0,1,1,.713-.713A.712.712,0,0,1,201.3,306.207Z" transform="translate(-199.7 -303.9)"/></g></g></g></svg>