<svg xmlns="http://www.w3.org/2000/svg" width="16" height="16" viewBox="0 0 16 16">
  <g id="More" transform="translate(-3208 -468)">
    <g id="Group_1104" data-name="Group 1104" transform="translate(-251 -55)">
      <circle id="Ellipse_7" data-name="Ellipse 7" cx="2" cy="2" r="2" transform="translate(3475 529) rotate(90)" fill="#013ec4"/>
      <circle id="Ellipse_12" data-name="Ellipse 12" cx="2" cy="2" r="2" transform="translate(3475 523) rotate(90)" fill="#013ec4"/>
      <circle id="Ellipse_15" data-name="Ellipse 15" cx="2" cy="2" r="2" transform="translate(3475 535) rotate(90)" fill="#013ec4"/>
      <circle id="Ellipse_8" data-name="Ellipse 8" cx="2" cy="2" r="2" transform="translate(3469 529) rotate(90)" fill="#013ec4"/>
      <circle id="Ellipse_11" data-name="Ellipse 11" cx="2" cy="2" r="2" transform="translate(3469 523) rotate(90)" fill="#013ec4"/>
      <circle id="Ellipse_14" data-name="Ellipse 14" cx="2" cy="2" r="2" transform="translate(3469 535) rotate(90)" fill="#013ec4"/>
      <circle id="Ellipse_9" data-name="Ellipse 9" cx="2" cy="2" r="2" transform="translate(3463 529) rotate(90)" fill="#013ec4"/>
      <circle id="Ellipse_10" data-name="Ellipse 10" cx="2" cy="2" r="2" transform="translate(3463 523) rotate(90)" fill="#013ec4"/>
      <circle id="Ellipse_13" data-name="Ellipse 13" cx="2" cy="2" r="2" transform="translate(3463 535) rotate(90)" fill="#013ec4"/>
    </g>
  </g>
</svg>
