<svg xmlns="http://www.w3.org/2000/svg" width="16.522" height="15.834" viewBox="0 0 16.522 15.834"><defs><style>.a{fill:#013ec4;}</style></defs><path class="a" d="M3.7,16.326a.879.879,0,0,1-.856-1.074L3.906,10.57.3,7.409A.879.879,0,0,1,.8,5.872l4.77-.433L7.454,1.026a.878.878,0,0,1,1.615,0l1.886,4.414,4.769.433a.879.879,0,0,1,.5,1.537l-3.6,3.161,1.063,4.682a.878.878,0,0,1-1.307.949L8.262,13.742,4.149,16.2a.88.88,0,0,1-.45.125Zm4.563-3.643a.88.88,0,0,1,.45.125l3.881,2.321-1-4.419a.878.878,0,0,1,.278-.856l3.4-2.985-4.5-.409a.877.877,0,0,1-.73-.532L8.262,1.764,6.482,5.929a.875.875,0,0,1-.728.53l-4.5.409,3.4,2.985a.876.876,0,0,1,.278.856l-1,4.419,3.881-2.321a.88.88,0,0,1,.45-.125ZM5.532,5.524h0Zm5.458,0h0Zm0,0" transform="translate(-0.001 -0.492)"/></svg>