<svg xmlns="http://www.w3.org/2000/svg" width="55.416" height="55.416" viewBox="0 0 55.416 55.416"><defs><style>.a{fill:#1edf92;}</style></defs><g transform="translate(0 0)"><g transform="translate(0 0)"><path class="a" d="M23.27,0H1.624A1.624,1.624,0,0,0,0,1.624V23.27a1.624,1.624,0,0,0,1.624,1.624H23.27a1.624,1.624,0,0,0,1.624-1.624V1.624A1.624,1.624,0,0,0,23.27,0ZM21.647,21.647H3.247V3.247h18.4Z"/></g><g transform="translate(7.576 7.576)"><path class="a" d="M78.118,70H71.623A1.624,1.624,0,0,0,70,71.623v6.494a1.624,1.624,0,0,0,1.623,1.624h6.494a1.624,1.624,0,0,0,1.624-1.624V71.623A1.624,1.624,0,0,0,78.118,70Z" transform="translate(-70 -70)"/></g><g transform="translate(30.522 0)"><path class="a" d="M305.27,0H283.624A1.624,1.624,0,0,0,282,1.624V23.27a1.624,1.624,0,0,0,1.623,1.624H305.27a1.624,1.624,0,0,0,1.624-1.624V1.624A1.624,1.624,0,0,0,305.27,0Zm-1.623,21.647h-18.4V3.247h18.4Z" transform="translate(-282)"/></g><g transform="translate(38.098 7.576)"><path class="a" d="M360.117,70h-6.494A1.624,1.624,0,0,0,352,71.623v6.494a1.624,1.624,0,0,0,1.624,1.624h6.494a1.624,1.624,0,0,0,1.624-1.624V71.623A1.624,1.624,0,0,0,360.117,70Z" transform="translate(-352 -70)"/></g><g transform="translate(0 30.522)"><path class="a" d="M23.27,282H1.624A1.624,1.624,0,0,0,0,283.624V305.27a1.624,1.624,0,0,0,1.624,1.624H23.27a1.624,1.624,0,0,0,1.624-1.624V283.624A1.624,1.624,0,0,0,23.27,282Zm-1.624,21.647H3.247v-18.4h18.4Z" transform="translate(0 -282)"/></g><g transform="translate(7.576 38.098)"><path class="a" d="M78.118,352H71.623A1.624,1.624,0,0,0,70,353.624v6.494a1.624,1.624,0,0,0,1.623,1.624h6.494a1.624,1.624,0,0,0,1.624-1.624v-6.494A1.624,1.624,0,0,0,78.118,352Z" transform="translate(-70 -352)"/></g><g transform="translate(41.345 38.098)"><path class="a" d="M394.447,359.645h-9.2v-6.022a1.624,1.624,0,1,0-3.247,0v7.645a1.624,1.624,0,0,0,1.623,1.624h9.2v3.178h-9.2a1.623,1.623,0,1,0,0,3.247h10.824a1.623,1.623,0,0,0,1.623-1.623v-6.425A1.624,1.624,0,0,0,394.447,359.645Z" transform="translate(-382 -352)"/></g><g transform="translate(52.169 30.522)"><path class="a" d="M483.624,282A1.624,1.624,0,0,0,482,283.624V291.2a1.623,1.623,0,1,0,3.247,0v-7.576A1.624,1.624,0,0,0,483.624,282Z" transform="translate(-482 -282)"/></g><g transform="translate(30.522 30.522)"><path class="a" d="M291.2,282h-7.576A1.624,1.624,0,0,0,282,283.624V291.2a1.624,1.624,0,0,0,3.247,0v-5.953H291.2a1.624,1.624,0,0,0,0-3.247Z" transform="translate(-282 -282)"/></g><g transform="translate(30.522 45.744)"><path class="a" d="M283.624,422.637A1.624,1.624,0,0,0,282,424.26v6.425a1.624,1.624,0,1,0,3.247,0V424.26A1.623,1.623,0,0,0,283.624,422.637Z" transform="translate(-282 -422.637)"/></g></g></svg>