<svg xmlns="http://www.w3.org/2000/svg" width="19.466" height="19.466" viewBox="0 0 19.466 19.466"><defs><style>.a{fill:#fff;}</style></defs><g transform="translate(0 0)"><path class="a" d="M8.174,0H.57A.57.57,0,0,0,0,.57v7.6a.57.57,0,0,0,.57.57h7.6a.57.57,0,0,0,.57-.57V.57A.57.57,0,0,0,8.174,0ZM7.6,7.6H1.141V1.141H7.6Z"/></g><g transform="translate(2.661 2.661)"><path class="a" d="M72.851,70H70.57a.57.57,0,0,0-.57.57v2.281a.57.57,0,0,0,.57.57h2.281a.57.57,0,0,0,.57-.57V70.57A.57.57,0,0,0,72.851,70Z" transform="translate(-70 -70)"/></g><g transform="translate(10.721 0)"><path class="a" d="M290.174,0h-7.6a.57.57,0,0,0-.57.57v7.6a.57.57,0,0,0,.57.57h7.6a.57.57,0,0,0,.57-.57V.57A.57.57,0,0,0,290.174,0Zm-.57,7.6h-6.463V1.141H289.6Z" transform="translate(-282)"/></g><g transform="translate(13.383 2.661)"><path class="a" d="M354.851,70H352.57a.57.57,0,0,0-.57.57v2.281a.57.57,0,0,0,.57.57h2.281a.57.57,0,0,0,.57-.57V70.57A.57.57,0,0,0,354.851,70Z" transform="translate(-352 -70)"/></g><g transform="translate(0 10.721)"><path class="a" d="M8.174,282H.57a.57.57,0,0,0-.57.57v7.6a.57.57,0,0,0,.57.57h7.6a.57.57,0,0,0,.57-.57v-7.6A.57.57,0,0,0,8.174,282Zm-.57,7.6H1.141v-6.463H7.6Z" transform="translate(0 -282)"/></g><g transform="translate(2.661 13.383)"><path class="a" d="M72.851,352H70.57a.57.57,0,0,0-.57.57v2.281a.57.57,0,0,0,.57.57h2.281a.57.57,0,0,0,.57-.57V352.57A.57.57,0,0,0,72.851,352Z" transform="translate(-70 -352)"/></g><g transform="translate(14.523 13.383)"><path class="a" d="M386.372,354.686h-3.232V352.57a.57.57,0,1,0-1.141,0v2.685a.57.57,0,0,0,.57.57H385.8v1.116H382.57a.57.57,0,0,0,0,1.141h3.8a.57.57,0,0,0,.57-.57v-2.257A.57.57,0,0,0,386.372,354.686Z" transform="translate(-382 -352)"/></g><g transform="translate(18.325 10.721)"><path class="a" d="M482.57,282a.57.57,0,0,0-.57.57v2.661a.57.57,0,1,0,1.141,0V282.57A.57.57,0,0,0,482.57,282Z" transform="translate(-482 -282)"/></g><g transform="translate(10.721 10.721)"><path class="a" d="M285.232,282H282.57a.57.57,0,0,0-.57.57v2.661a.57.57,0,0,0,1.141,0v-2.091h2.091a.57.57,0,0,0,0-1.141Z" transform="translate(-282 -282)"/></g><g transform="translate(10.721 16.068)"><path class="a" d="M282.57,422.637a.57.57,0,0,0-.57.57v2.257a.57.57,0,1,0,1.141,0v-2.257A.57.57,0,0,0,282.57,422.637Z" transform="translate(-282 -422.637)"/></g></svg>