<svg xmlns="http://www.w3.org/2000/svg" width="18.577" height="16.147" viewBox="0 0 18.577 16.147">
  <path id="Send" d="M18.566,34.151a.545.545,0,0,0-.726-.623L.351,40.2a.544.544,0,0,0,0,1.016l4.913,1.9v5.976a.544.544,0,0,0,1.03.245l2.032-4.032,4.959,3.68a.545.545,0,0,0,.845-.278C18.758,33.529,18.558,34.189,18.566,34.151Zm-4.317,1.913-8.52,6.067L2.064,40.716Zm-7.9,6.961,7.426-5.289c-6.39,6.741-6.056,6.386-6.084,6.424-.041.056.072-.161-1.342,2.644Zm6.961,4.628L8.947,44.414l7.892-8.326Z" transform="translate(-0.001 -33.492)" fill="#fff"/>
</svg>
