<svg xmlns="http://www.w3.org/2000/svg" width="13.884" height="16.455" viewBox="0 0 13.884 16.455"><defs><style>.a{fill:#013ec4;}</style></defs><g transform="translate(-40 0)"><path class="a" d="M53.487,2.665,47.188.049a.643.643,0,0,0-.493,0L40.4,2.665a.643.643,0,0,0-.4.594V6.437a10.764,10.764,0,0,0,6.7,9.97.643.643,0,0,0,.486,0,10.764,10.764,0,0,0,6.7-9.97V3.258A.643.643,0,0,0,53.487,2.665ZM52.6,6.437a9.481,9.481,0,0,1-5.656,8.676,9.481,9.481,0,0,1-5.656-8.676V3.687l5.656-2.348L52.6,3.687ZM46.231,8.6l2.763-2.763a.643.643,0,1,1,.909.909L46.686,9.968a.643.643,0,0,1-.909,0l-1.8-1.8a.643.643,0,1,1,.909-.909Z" transform="translate(0 0)"/></g></svg>