<svg xmlns="http://www.w3.org/2000/svg" width="61.654" height="73.073" viewBox="0 0 61.654 73.073"><defs><style>.a{fill:#f63434;}</style></defs><path class="a" d="M99.894,11.833,71.921.218a2.854,2.854,0,0,0-2.189,0L41.76,11.833A2.855,2.855,0,0,0,40,14.469V28.587A47.8,47.8,0,0,0,69.748,72.862a2.855,2.855,0,0,0,2.157,0,47.8,47.8,0,0,0,29.748-44.274V14.469A2.854,2.854,0,0,0,99.894,11.833ZM95.945,28.587A42.1,42.1,0,0,1,70.827,67.119,42.1,42.1,0,0,1,45.709,28.587V16.374L70.827,5.945,95.945,16.374Z" transform="translate(-40 0)"/></svg>