<svg xmlns="http://www.w3.org/2000/svg" width="13.459" height="15.952" viewBox="0 0 13.459 15.952"><defs><style>.a{fill:#1edf92;}</style></defs><path class="a" d="M53.075,2.583,46.969.048a.623.623,0,0,0-.478,0L40.384,2.583A.623.623,0,0,0,40,3.159V6.241a10.435,10.435,0,0,0,6.494,9.665.623.623,0,0,0,.471,0,10.435,10.435,0,0,0,6.494-9.665V3.159A.623.623,0,0,0,53.075,2.583Zm-.862,3.658a9.191,9.191,0,0,1-5.483,8.411,9.191,9.191,0,0,1-5.483-8.411V3.575L46.73,1.3l5.483,2.277Zm-6.172,2.1,2.678-2.678a.623.623,0,1,1,.881.881L46.481,9.663a.623.623,0,0,1-.881,0L43.859,7.922a.623.623,0,0,1,.881-.881Z" transform="translate(-40 0)"/></svg>