<svg xmlns="http://www.w3.org/2000/svg" width="12.611" height="14.947" viewBox="0 0 12.611 14.947"><defs><style>.a{fill:#013ec4;}</style></defs><g transform="translate(-40 0)"><path class="a" d="M52.251,2.42,46.53.045a.584.584,0,0,0-.448,0L40.36,2.42A.584.584,0,0,0,40,2.96V5.848A9.778,9.778,0,0,0,46.085,14.9a.584.584,0,0,0,.441,0,9.778,9.778,0,0,0,6.085-9.056V2.96A.584.584,0,0,0,52.251,2.42Zm-.808,3.427a8.612,8.612,0,0,1-5.138,7.881,8.612,8.612,0,0,1-5.138-7.881v-2.5l5.138-2.133,5.138,2.133ZM45.66,7.816l2.51-2.51A.584.584,0,1,1,49,6.132L46.073,9.054a.584.584,0,0,1-.826,0L43.616,7.422a.584.584,0,1,1,.826-.826Z" transform="translate(0 0)"/></g></svg>