<svg xmlns="http://www.w3.org/2000/svg" width="20.292" height="20.292" viewBox="0 0 20.292 20.292"><defs><style>.a{fill:none;stroke:#000;stroke-linecap:round;stroke-linejoin:round;stroke-miterlimit:10;stroke-width:32px;}.b{fill:#013ec4;}</style></defs><g transform="translate(0 0)"><path class="a" transform="translate(0 0)"/><path class="b" d="M18.473,6.975h-3.25V1.428A1.427,1.427,0,0,0,13.158.151L13.141.16,1.379,6.49A2.61,2.61,0,0,0,0,8.792v9.677a1.825,1.825,0,0,0,1.823,1.823H18.473A1.825,1.825,0,0,0,20.3,18.469V8.8a1.825,1.825,0,0,0-1.823-1.823ZM13.731,1.283a.159.159,0,0,1,.224.145V6.975H3.154Zm5.3,17.185a.555.555,0,0,1-.555.555H1.827a.555.555,0,0,1-.555-.555V8.8a.555.555,0,0,1,.555-.555H18.473a.555.555,0,0,1,.555.555Z" transform="translate(-0.004 0)"/><path class="b" d="M385.272,314.543a1.268,1.268,0,1,1,1.268-1.268A1.27,1.27,0,0,1,385.272,314.543Zm0-1.268h0Z" transform="translate(-368.785 -299.642)"/></g></svg>