<svg xmlns="http://www.w3.org/2000/svg" xmlns:xlink="http://www.w3.org/1999/xlink" width="639.031" height="655.607" viewBox="0 0 639.031 655.607"><defs><style>.a{fill:url(#a);}.b{fill:#e6e6e6;}.c{fill:#cbcbcb;}.d{fill:#6c63ff;}.e{opacity:0.8;fill:url(#b);}.f{fill:#002db0;}.g{fill:#fff;}.h{fill:#f4bd00;}.i{fill:#2f2e41;}</style><radialGradient id="a" cx="0.311" cy="1.047" r="0.758" gradientTransform="matrix(1, -0.001, -0.001, -1.713, 0.001, 2.841)" gradientUnits="objectBoundingBox"><stop offset="0" stop-color="#013ec4"/><stop offset="0.31" stop-color="#013ec4"/><stop offset="1" stop-color="#002db0"/></radialGradient><linearGradient id="b" y1="0.5" x2="1" y2="0.5" gradientUnits="objectBoundingBox"><stop offset="0" stop-color="#f4bd00"/><stop offset="1" stop-color="#fff" stop-opacity="0.302"/></linearGradient></defs><g transform="translate(0 -20.991)"><path class="a" d="M703.2,305.923C622.528,183.858,584.587,41,438.274,41S173.351,159.611,173.351,305.923,305.558,509.252,438.274,570.846C869.346,770.908,883.695,579.051,703.2,305.923Z" transform="translate(-173.351 23)"/><circle class="b" cx="49.571" cy="49.571" r="49.571" transform="translate(451.832 20.991)"/><circle class="c" cx="5.689" cy="5.689" r="5.689" transform="translate(490.839 30.743)"/><circle class="c" cx="5.689" cy="5.689" r="5.689" transform="translate(500.591 87.628)"/><circle class="c" cx="4.063" cy="4.063" r="4.063" transform="translate(524.158 57.56)"/><circle class="c" cx="13.002" cy="13.002" r="13.002" transform="translate(468.898 61.623)"/><circle class="d" cx="8.126" cy="8.126" r="8.126" transform="translate(322.621 138.825)"/><circle class="d" cx="8.126" cy="8.126" r="8.126" transform="translate(540.41 159.954)"/><circle class="b" cx="4.876" cy="4.876" r="4.876" transform="translate(446.956 178.645)"/><circle class="b" cx="4.876" cy="4.876" r="4.876" transform="translate(71.513 332.235)"/><circle class="b" cx="4.876" cy="4.876" r="4.876" transform="translate(360.003 463.071)"/><path class="d" d="M587.048,438.239l-2.433,2.418-2.417-2.434-1.622,1.612,2.417,2.434-2.434,2.417,1.612,1.623,2.434-2.417,2.417,2.434,1.622-1.612-2.418-2.434,2.434-2.417Z" transform="translate(-145.78 -110.039)"/><path class="b" d="M156.254,544.582,153.82,547l-2.417-2.434-1.623,1.611,2.417,2.434-2.434,2.417,1.612,1.623,2.433-2.418,2.417,2.434,1.623-1.612-2.417-2.433,2.434-2.417Z" transform="translate(-37.606 -136.742)"/><path class="b" d="M182.3,355.771l-2.434,2.417-2.417-2.433-1.623,1.611,2.417,2.434-2.434,2.417,1.612,1.622,2.433-2.417,2.417,2.433,1.623-1.611-2.417-2.434,2.434-2.418Z" transform="translate(-44.146 -89.331)"/><path class="b" d="M749.817,155.022l-2.434,2.417-2.417-2.433-1.623,1.611,2.417,2.434-2.434,2.417,1.612,1.622,2.434-2.417,2.417,2.433,1.623-1.611-2.417-2.434,2.434-2.417Z" transform="translate(-186.651 -38.922)"/><path class="b" d="M493.728,245.088l-2.434,2.417-2.417-2.434-1.622,1.612,2.417,2.433-2.433,2.417,1.611,1.623,2.434-2.417,2.417,2.434,1.622-1.612-2.417-2.434,2.433-2.417Z" transform="translate(-122.347 -61.538)"/><path class="e" d="M691.31,421.566,716,392.659l24.692-28.906,13.939-16.318c.771-.9-.419-2.311-1.19-1.409l-24.691,28.907L704.059,403.84,690.12,420.158c-.771.9.419,2.311,1.19,1.409Z" transform="translate(-303.051 -117.52)"/><path class="e" d="M632.714,560.462l24.692-28.906L682.1,502.649l13.939-16.318c.771-.9-.419-2.311-1.19-1.409l-24.691,28.906-24.692,28.907-13.939,16.318c-.771.9.419,2.311,1.19,1.408Z" transform="translate(-288.337 -152.397)"/><path class="f" d="M293.526,331.322h46.321v18.227a11.841,11.841,0,0,1-11.841,11.841H305.367a11.841,11.841,0,0,1-11.841-11.841Z" transform="translate(-73.705 -83.196)"/><path class="g" d="M517.195,614.491c-10.548,10.687-21.112,10.759-31.693.345l-8.127-71.857-5.689,72.007c-10.573,8.558-20.427,9.71-29.255.318-8.422-62.215-13-120.014-5.689-164.155L421.3,388.574l34.944-16.253c7.037,17.407-4.061,26.31,21.035,26.012,24.876-.3,23.018-9.653,22.035-26.012l32.145,12.363a11.52,11.52,0,0,1,6.85,14.221l-16.241,51.429C528.323,476.3,521.9,548.517,517.195,614.491Z" transform="translate(-235.612 -124.196)"/><path class="h" d="M472.82,756.628s-25.942,2.272-29.417.841h0q-.329-.135-.641-.295c-5.164-2.637-5.322-10.022-.495-13.235l10.237-6.815-8.939-47.946,34.537.406Z" transform="translate(-239.997 -203.759)"/><path class="h" d="M509.192,757.17s25.942,2.272,29.417.842h0q.329-.135.641-.295c5.164-2.637,5.322-10.022.495-13.235l-10.237-6.815,12.6-47.946H505.942Z" transform="translate(-256.866 -203.895)"/><path class="g" d="M420.724,509.678l5.142,20.569a12.4,12.4,0,0,1-5.393,13.477h0a12.395,12.395,0,0,1-18.954-9.139l-1.111-10.28-4.063-97.7A41.1,41.1,0,0,1,421.7,388.644l7.962-3.3Z" transform="translate(-229.345 -127.465)"/><path class="g" d="M590.262,425.525l-.024.577-3.283,78.859L586.32,520.2l-.122,3.023-1.113,10.28a12.395,12.395,0,1,1-24.347-4.34l5.144-20.568-.114-1.528-.683-9.557-8.143-113.251,7.964,3.3a41.158,41.158,0,0,1,25.355,37.967Z" transform="translate(-269.672 -127.193)"/><path class="i" d="M484.487,555.237c-29.52,0-47.729-10.237-47.986-10.386l.812-1.408c.363.209,36.883,20.695,90.537,2.938l.511,1.543A139.225,139.225,0,0,1,484.487,555.237Z" transform="translate(-239.429 -167.164)"/><path class="i" d="M459.356,632.128c-6.5-14.617-6.529-78.149-6.527-80.847l1.625,0c0,.657.03,65.881,6.388,80.185Z" transform="translate(-243.529 -169.133)"/><path class="i" d="M460.128,657c-5.787,0-9.632-1.232-12.138-2.646-4.564-2.574-5.506-6.081-5.543-6.228l1.575-.4-.787.2.786-.206c.033.123.855,3.043,4.84,5.26,4.388,2.44,13.221,4.262,30.374-.925l.47,1.555C471.5,656.09,465.1,657,460.128,657Z" transform="translate(-240.922 -193.348)"/><rect class="i" width="1.626" height="127.435" transform="matrix(0.999, -0.049, 0.049, 0.999, 203.067, 255.956)"/><path class="i" d="M534.649,632.128l-1.486-.66c6.358-14.3,6.389-79.528,6.388-80.184l1.625,0C541.178,553.979,541.146,617.511,534.649,632.128Z" transform="translate(-263.701 -169.133)"/><path class="i" d="M524.071,657c-4.968,0-11.365-.908-19.576-3.391l.47-1.555c17.153,5.186,25.984,3.366,30.374.925,3.985-2.217,4.807-5.137,4.839-5.26l1.574.407c-.038.148-.979,3.655-5.543,6.228C533.7,655.767,529.857,657,524.071,657Z" transform="translate(-256.502 -193.348)"/><rect class="i" width="127.435" height="1.626" transform="translate(275.859 383.162) rotate(-87.202)"/><path class="h" d="M339.559,367.131l-12.092,17.878h-26l-8.695-17.878h3.819l6.5,14.627h21.941l10.565-14.627Z" transform="translate(-73.515 -92.187)"/><path d="M394.443,379.067l.211.422-.211.39Z" transform="translate(-99.046 -95.185)"/><path class="h" d="M595.227,428.658l-.024.577-15.416,4.478-9.541-19.081,9.76-17.895A41.046,41.046,0,0,1,595.227,428.658Z" transform="translate(-273.013 -130.326)"/><path class="h" d="M395.01,428.658l.024.577,15.416,4.478,9.541-19.081-9.76-17.895A41.047,41.047,0,0,0,395.01,428.658Z" transform="translate(-229.01 -130.326)"/><circle class="b" cx="43.07" cy="43.07" r="43.07" transform="translate(199.911 175.394)"/><circle class="f" cx="31.693" cy="31.693" r="31.693" transform="translate(211.288 192.459)"/><path class="h" d="M416.655,501.933l-.66,15.237-20.843-11.2-.541-1.934-.711-9.557Z" transform="translate(-98.909 -124.165)"/><path class="h" d="M226.324,501.933l.694,15.237,21.908-11.2.569-1.934.747-9.557Z" transform="translate(-56.831 -124.165)"/><path class="i" d="M325.384,378.07H298.439L283.52,347.4l-.767-11.031,1.621-.112.745,10.715,14.337,29.469h25.064l18.385-27.177,3.914-12,1.547.5-4.05,12.313Z" transform="translate(-71 -84.436)"/></g></svg>